<?xml version="1.0" encoding="utf-8"?>
<!-- Generator: Adobe Illustrator 21.0.0, SVG Export Plug-In . SVG Version: 6.00 Build 0)  -->
<svg version="1.1" id="Capa_2" xmlns="http://www.w3.org/2000/svg" xmlns:xlink="http://www.w3.org/1999/xlink" x="0px" y="0px"
	 width="290.2px" height="409.6px" viewBox="0 0 290.2 409.6" style="enable-background:new 0 0 290.2 409.6;" xml:space="preserve"
	>
<style type="text/css">
	.st0{fill:#E44D26;}
	.st1{fill:#F16529;}
	.st2{fill:#EBEBEB;}
	.st3{fill:#FFFFFF;}
</style>
<g>
	<path d="M27,0.1h18.4v18.2h17V0.1h18.4v55.2H62.4V36.9H45.6v18.4H27 M105.1,18.5H88.9V0.1h51v18.4h-16.3v36.8h-18.4 M147.9,0.1
		h19.3L179,19.5l11.8-19.4h19.3v55.2h-18.4V27.9l-12.9,19.8L166,27.9v27.4h-18.1 M219.2,0.1h18.4v37h26.1v18.2h-44.5"/>
	<path class="st0" d="M26.4,376.8L0,80.5h290.2l-26.4,296.1l-118.9,33"/>
	<path class="st1" d="M145.1,384.4V104.9h118.6l-22.6,252.8"/>
	<path class="st2" d="M53.9,141.1h91.2v36.3H93.7l3.4,37.2h48v36.2H63.8 M65.4,269.1h36.5l2.6,29l40.6,10.9v37.9l-74.5-20.8"/>
	<path class="st3" d="M236,141.1h-91v36.3h87.7 M229.3,214.6h-84.4v36.3h44.8l-4.2,47.2L144.9,309v37.8l74.4-20.6"/>
</g>
</svg>
