<?xml version="1.0" encoding="utf-8"?>
<!-- Generator: Adobe Illustrator 21.0.0, SVG Export Plug-In . SVG Version: 6.00 Build 0)  -->
<svg version="1.1"
	 id="svg64" inkscape:version="0.92.2 2405546, 2018-03-11" sodipodi:docname="Javascript-shield.svg" xmlns:cc="http://creativecommons.org/ns#" xmlns:dc="http://purl.org/dc/elements/1.1/" xmlns:inkscape="http://www.inkscape.org/namespaces/inkscape" xmlns:rdf="http://www.w3.org/1999/02/22-rdf-syntax-ns#" xmlns:sodipodi="http://sodipodi.sourceforge.net/DTD/sodipodi-0.dtd" xmlns:svg="http://www.w3.org/2000/svg"
	 xmlns="http://www.w3.org/2000/svg" xmlns:xlink="http://www.w3.org/1999/xlink" x="0px" y="0px" width="290.2px" height="408.7px"
	 viewBox="0 0 290.2 408.7" style="enable-background:new 0 0 290.2 408.7;" xml:space="preserve">
<style type="text/css">
	.st0{fill:#FFFFFF;}
	.st1{fill:#EAEBEC;}
	.st2{fill:#F0BE25;}
	.st3{fill:#E4A126;}
	.st4{fill:#0E0E0F;}
</style>
<sodipodi:namedview  bordercolor="#666666" borderopacity="1" fit-margin-bottom="0" fit-margin-left="0" fit-margin-right="0" fit-margin-top="0" gridtolerance="10" guidetolerance="10" id="namedview66" inkscape:current-layer="svg64" inkscape:cx="364.99449" inkscape:cy="300.83113" inkscape:pageopacity="0" inkscape:pageshadow="2" inkscape:window-height="1016" inkscape:window-maximized="1" inkscape:window-width="1920" inkscape:window-x="0" inkscape:window-y="27" inkscape:zoom="1.0628712" objecttolerance="10" pagecolor="#ffffff" showgrid="false">
	</sodipodi:namedview>
<path id="path118" inkscape:connector-curvature="0" class="st0" d="M1,79.9l0,3.7c0,2,5.8,68.5,12.9,147.8l12.9,144.1l57.9,16.2
	c31.9,8.9,58.6,16.3,59.4,16.3c0.8,0.1,27.9-7.2,60.2-16.2c51.8-14.3,58.8-16.5,59.1-18.3c0.5-2.5,25.9-288.4,25.8-291.5l0-2.2
	H145.1H1z"/>
<path id="path88" inkscape:connector-curvature="0" sodipodi:nodetypes="sccsssccsscsccccccccsscscssscsscccsccsscccc" class="st1" d="
	M85.2,392.6l-58.4-16.3L26,372C25.3,368.1,0,85.1,0,81.4c0-1.4,14.8-1.5,145.1-1.5c137.6,0,145.1,0.1,145.1,1.7
	c0,7-26.3,293.7-26.9,294.3c-0.8,0.7-113.9,32.2-117.7,32.8C144.5,408.8,117.4,401.6,85.2,392.6L85.2,392.6z M182,334.9
	c19.6-5.4,36-10.1,36.3-10.5c0.3-0.3,2.6-23.6,5.1-51.7c2.5-28.1,4.7-53,5-55.3l0.6-4.1h-42.4h-42.4v18v18H167h22.9l-0.5,2.2
	c-0.3,1.2-1.2,11.6-2.2,23c-1,12.1-2.2,21.3-2.8,21.9c-0.6,0.6-9.9,3.5-20.7,6.4l-19.6,5.2v18.4c0,12.5,0.3,18.4,1.1,18.4
	C145.8,344.7,162.3,340.3,182,334.9L182,334.9z M228.4,190.6c-0.6-4.8-6.4-68.8-6.4-71.2c0-1.5-3.4-1.6-38.5-1.6h-38.5v18.8v18.8
	l17.3,0.7c9.5,0.4,19.5,0.9,22.2,1.2l4.9,0.6l1.2,14.7c0.7,8.1,1.4,16.4,1.7,18.4l0.5,3.7h18h18L228.4,190.6z"/>
<path id="path80" inkscape:connector-curvature="0" sodipodi:nodetypes="ccsccccccscccccscscsccsssccscscssccccsccscsscccccccc" class="st2" d="
	M84.8,391.6l-57.9-16.2L14,231.3C6.9,152,1,85.5,1,83.5l0-3.7h144.1h144.1l0,2.2c0,3.1-25.3,289-25.8,291.5
	c-0.4,1.8-7.4,3.9-59.1,18.3c-32.3,8.9-59.4,16.2-60.2,16.2C143.3,407.9,116.6,400.6,84.8,391.6L84.8,391.6z M182,335.6
	c20-5.6,36.7-10.6,37-11.1c0.3-0.6,2.7-25,5.3-54.4c2.6-29.4,4.9-54.1,5.2-55.1c0.4-1.6-3-1.7-61.7-1.7h-62.2l2.6-28
	c1.5-15.4,2.7-28,2.7-28.1c0,0,9.2-0.3,20.3-0.6c18.2-0.5,55.8,1,57.1,2.2c0.5,0.5,3.6,30.8,3.6,34.9c0,2,0.3,2.1,18.9,2.1h18.9
	l-0.4-4.1c-0.2-2.3-1.8-19.9-3.6-39.2l-3.1-35.1l-72.8-0.2c-57.9-0.2-72.8,0-72.8,1c0,0.7-0.4,4.9-0.9,9.5
	C74.7,138.6,65.2,245,65.2,248v2.3h61.9h61.9l-0.6,3.7c-0.3,2-1.3,12.2-2.1,22.6s-1.9,19.3-2.2,19.6c-0.9,0.9-37.3,10.6-39.6,10.6
	c-1.1,0-10.5-2.4-20.9-5.2l-19-5.2l-0.7-8.2c-0.4-4.5-1-10.9-1.3-14.3l-0.6-6.1H83.7H65.2l0,3.7c0.1,6.8,4.5,52.8,5.1,53.5
	c0.7,0.7,71.5,20.6,73.7,20.7C144.9,345.7,162,341.2,182,335.6L182,335.6z"/>
<path id="path78" inkscape:connector-curvature="0" sodipodi:nodetypes="ccsccccccscccscccccccscsscccscscsscccccscsssscscccccs" class="st3" d="
	M84.8,391.6l-57.9-16.2L14,231.3C6.9,152,1,85.5,1,83.5l0-3.7h144.1h144.1l0,2.2c0,3.1-25.3,289-25.8,291.5
	c-0.4,1.8-7.4,3.9-59.1,18.3c-32.3,8.9-59.4,16.2-60.2,16.2C143.3,407.9,116.6,400.6,84.8,391.6L84.8,391.6z M192.8,369.9
	c25.5-7,46.8-13.3,47.4-13.9c0.9-0.9,22.9-242.1,22.8-250.2l0-2.7H204h-58.9v6.8v6.8H111c-26.6,0-34.1,0.3-34.1,1.2
	c0,0.7-0.4,4.9-0.9,9.5C74.7,138.6,65.2,245,65.2,248v2.3h39.9h39.9v28.2c0,22-0.3,28.2-1.2,28.2c-0.7,0-9.8-2.4-20.2-5.2l-19-5.2
	l-0.7-8.2c-0.4-4.5-1-10.9-1.3-14.3l-0.6-6.1H83.7H65.2l0,3.7c0.1,10.4,4.6,53.1,5.7,53.7c0.6,0.4,17.6,5.3,37.6,10.8l36.5,10.1
	v18.3c0,10.1,0.3,18.3,0.7,18.3S167.3,377,192.8,369.9L192.8,369.9z M108.1,185.5c1.4-15.3,2.7-27.9,3-28.1c0.2-0.2,8-0.6,17.2-0.8
	l16.8-0.5v28.6v28.6h-19.8h-19.8L108.1,185.5z"/>
<path id="path76" inkscape:connector-curvature="0" class="st4" d="M92.5,45.3V36h13.1h13.1V18V0h9.3h9.3v27.3v27.3h-22.4H92.5V45.3
	z M146.1,47.2v-7.3h12.2c6.7,0,12.2-0.2,12.2-0.6c0-0.3-5.5-6.5-12.2-13.7l-12.2-13.2V6.2V0h25.3h25.3v7.3v7.3l-11.9,0.3l-11.9,0.3
	l12.4,13.3l12.4,13.3v6.4v6.4h-25.8h-25.8V47.2z"/>
</svg>
